General

Complete name                    : Real.Steel.[2011].ENG.[DvDRip].Xvid.-.{RedDragon}.avi
Format                           : AVI
Format/Info                      : Audio Video Interleave
File size                        :  MiB
Duration                         : 2h 6mn
Overall bit rate                 : 883 Kbps
Release Date                     : 7 October 2011 (India)
IMDb                             : http://www.imdb.com/title/tt0433035/

Video

ID                               : 0
Format                           : MPEG-4 Visual
Format profile                   : Advanced Simple@L5
Format settings, BVOP            : Yes
Format settings, QPel            : No
Format settings, GMC             : No warppoints
Format settings, Matrix          : Default (H.263)
Codec ID                         : XVID
Codec ID/Hint                    : XviD
Duration                         : 2h 6mn
Bit rate                         : 739 Kbps
Width                            : 640 pixels
Height                           : 272 pixels
Display aspect ratio             : 2.35:1
Frame rate                       : 23.976 fps
Color space                      : YUV
Chroma subsampling               : 4:2:0
Bit depth                        : 8 bits
Scan type                        : Progressive
Bits/(Pixel*Frame)               : 0.177
Stream size                      : 670 MiB (84%)
Writing library                  : XviD 1.2.1 (UTC 2008-12-04)

Audio

ID                               : 1
Format                           : MPEG Audio
Format version                   : Version 1
Format profile                   : Layer 3
Mode                             : Joint stereo
Mode extension                   : MS Stereo
Codec ID                         : 55
Codec ID/Hint                    : MP3
Duration                         : 2h 6mn
Bit rate mode                    : Variable
Bit rate                         : 132 Kbps
Nominal bit rate                 : 144 Kbps
Channel(s)                       : 2 channels
Sampling rate                    : 48.0 KHz
Stream size                      : 119 MiB (15%)
Alignment                        : Aligned on interleaves
Interleave, duration             : 24 ms (0.58 video frame)
Interleave, preload duration     : 64 ms
 

FORUMS. 
 
 
Please Join my Forums :
 
http://discussionforums.freeforhosting.com/    --&gt; Discussion Forum.